# xmcd
#
# Track frame offsets: 
#        150
#        16424
#        31215
#        41144
#        56615
#        71349
#        84982
#        101157
#        114780
#        134086
#        147514
#
# Disc length: 2252 seconds
#
# Revision: 0
# Processed by: cddbd v1.5.1PL0 Copyright (c) Steve Scherf et al.
# Submitted via: ExactAudioCopy v0.95a5
#
DISCID=9608ca0b
DTITLE=Slavonske Lole - Sve je ona meni
DYEAR=2003
DGENRE=
TTITLE0=Sve je ona meni
TTITLE1=Aoj tajna zeljo moja
TTITLE2=Kato zlato
TTITLE3=Bit cu ovdje jos za tebe
TTITLE4=Daj mi daj
TTITLE5=Svirac Becarina
TTITLE6=Granicari pokraj rijeke Save
TTITLE7=Svatovska
TTITLE8=Di se skrila Slavonija
TTITLE9=Becarska
TTITLE10=Drmes
EXTD=
EXTT0=
EXTT1=
EXTT2=
EXTT3=
EXTT4=
EXTT5=
EXTT6=
EXTT7=
EXTT8=
EXTT9=
EXTT10=
PLAYORDER=
